<?xml version="1.0" encoding="utf-8"?>
<!-- Generator: Adobe Illustrator 16.0.0, SVG Export Plug-In . SVG Version: 6.00 Build 0)  -->
<!DOCTYPE svg PUBLIC "-//W3C//DTD SVG 1.1//EN" "http://www.w3.org/Graphics/SVG/1.1/DTD/svg11.dtd">
<svg version="1.1" id="Layer_1" xmlns="http://www.w3.org/2000/svg" xmlns:xlink="http://www.w3.org/1999/xlink" x="0px" y="0px"
	 viewBox="0 0 612 612" enable-background="new 0 0 612 612" xml:space="preserve">
<title>Facebook</title>
<desc>Created with Sketch.</desc>
<path d="M544,0H68C30.445,0,0,30.445,0,68v476c0,37.556,30.445,68,68,68h263.583V381.555H255v-88.558h76.583V227.68
	c0-75.836,46.224-117.18,113.987-117.18c32.304,0,60.18,2.446,68.375,3.547v79.139l-46.971,0.122
	c-36.816,0-43.911,17.491-43.911,43.056v56.633h87.7l-11.375,88.558h-76.325V612H544c37.556,0,68-30.444,68-68V68
	C612,30.445,581.556,0,544,0z"/>
</svg>
