<svg id="Layer_1" xmlns="http://www.w3.org/2000/svg" viewBox="0 0 841.89 595.28"><style>.st0{fill:#df2626}.st1{fill:red}.st4{fill:#fff}</style><path class="st0" d="M314.42 434.74c-6.69-.07-12.98-4.14-15.56-10.76l-66.48-193.45c-3.39-8.7.9-18.49 9.6-21.89 8.69-3.39 18.5.9 21.89 9.6l66.48 193.46c3.39 8.69-.9 18.49-9.6 21.89-2.08.8-4.23 1.18-6.33 1.15z"/><path class="st1" d="M148.63 349.64c-1.85-.02-3.73-.35-5.56-1.01-8.78-3.18-13.32-12.87-10.14-21.64l39.47-109.01c3.18-8.78 12.88-13.32 21.64-10.14 8.78 3.18 13.32 12.87 10.14 21.65L164.71 338.5c-2.51 6.93-9.09 11.22-16.08 11.14z"/><path class="st0" d="M580.11 426.99c-4.97-.06-9.88-2.29-13.17-6.53L426.18 224.28c-5.73-7.37-4.39-17.99 2.97-23.71 7.37-5.73 17.98-4.4 23.72 2.97l140.77 196.18c5.73 7.37 4.39 17.99-2.98 23.72a16.88 16.88 0 0 1-10.55 3.55z"/><path d="M431.38 368.47c-5.12-.06-10.16-2.43-13.43-6.87l-48.35-93.09c-5.54-7.51-3.94-18.09 3.57-23.63 7.51-5.54 18.1-3.94 23.63 3.57l48.35 93.09c5.54 7.52 3.95 18.1-3.57 23.63a16.788 16.788 0 0 1-10.2 3.3z" fill="#dd1616"/><path class="st1" d="M431.17 368.53c-3.65-.04-7.3-1.25-10.37-3.71-7.28-5.83-8.46-16.47-2.63-23.76l123.38-173.41c5.84-7.28 16.47-8.46 23.76-2.63 7.28 5.83 8.46 16.47 2.63 23.76L444.56 362.19c-3.38 4.22-8.38 6.39-13.39 6.34z"/><path d="M314.01 434.46c-2.33-.03-4.7-.54-6.94-1.59-8.46-3.94-12.12-14-8.17-22.46l68.99-159.08c3.94-8.45 13.99-12.12 22.46-8.17 8.46 3.94 12.12 14 8.17 22.46L329.53 424.7c-2.9 6.21-9.09 9.83-15.52 9.76z" fill="#e50a11"/><path class="st0" d="M431.38 368.47c-5.12-.06-10.16-2.43-13.43-6.87l-48.35-93.09c-5.54-7.51-3.94-18.09 3.57-23.63 7.51-5.54 18.1-3.94 23.63 3.57l48.35 93.09c5.54 7.52 3.95 18.1-3.57 23.63a16.788 16.788 0 0 1-10.2 3.3z"/><path class="st1" d="M314.01 434.46c-2.33-.03-4.7-.54-6.94-1.59-8.46-3.94-12.12-14-8.17-22.46l68.99-159.08c3.94-8.45 13.99-12.12 22.46-8.17 8.46 3.94 12.12 14 8.17 22.46L329.53 424.7c-2.9 6.21-9.09 9.83-15.52 9.76z"/><path class="st0" d="M217.85 307.57c-6.41-.07-12.5-3.8-15.27-10.04l-29.73-66.94c-3.79-8.53.05-18.52 8.59-22.31 8.53-3.8 18.52.05 22.31 8.59l29.73 66.94c3.79 8.53-.05 18.51-8.59 22.31a17.12 17.12 0 0 1-7.04 1.45z"/><path class="st1" d="M217.82 307.57c-2.28-.03-4.58-.51-6.79-1.52-8.5-3.86-12.26-13.88-8.4-22.38l30.1-66.28c3.86-8.5 13.88-12.26 22.38-8.4 8.5 3.86 12.26 13.88 8.4 22.38l-30.1 66.28c-2.86 6.29-9.09 9.99-15.59 9.92z"/><path class="st4" d="M83.51 409.42v-30.18c0-8.51 2.31-14.76 6.92-18.76 4.61-4 10.63-6 18.06-6 7.57 0 13.75 1.88 18.55 5.63 4.8 3.75 7.19 8.72 7.19 14.93 0 2.67-.54 4.49-1.62 5.46-1.08.97-2.89 1.46-5.41 1.46-4.62 0-6.96-1.48-7.03-4.43-.07-.94-.16-1.75-.27-2.44-.11-.68-.4-1.58-.86-2.7-.47-1.12-1.07-2.05-1.79-2.81-.72-.76-1.8-1.41-3.24-1.95-1.44-.54-3.14-.81-5.08-.81-7.57 0-11.36 4.15-11.36 12.44v30.18c0 8.29 3.86 12.44 11.57 12.44 2.31 0 4.24-.36 5.79-1.08 1.55-.72 2.67-1.75 3.35-3.08.69-1.33 1.15-2.52 1.41-3.57.25-1.04.41-2.33.49-3.84.22-2.95 2.52-4.43 6.92-4.43 2.52 0 4.34.49 5.46 1.46s1.68 2.79 1.68 5.46c0 6.49-2.4 11.68-7.19 15.58-4.8 3.89-11.02 5.84-18.66 5.84-7.43 0-13.43-2-18.01-6-4.58-4.04-6.87-10.29-6.87-18.8zM143.75 429.11v-70.3c0-1.15.43-2.16 1.3-3.03.86-.87 1.95-1.3 3.24-1.3h21.42c17.09 0 25.63 7.54 25.63 22.61 0 5.91-1.28 10.67-3.84 14.27-2.56 3.61-6 6.06-10.33 7.36L195.35 425c.36.43.54 1.01.54 1.73 0 1.8-.94 3.48-2.81 5.03-1.88 1.55-3.86 2.32-5.95 2.32s-3.71-1.12-4.87-3.35l-15.36-29.85h-9.09v28.23c0 1.37-.69 2.45-2.06 3.24s-3.03 1.19-4.97 1.19c-1.88 0-3.52-.4-4.92-1.19-1.4-.79-2.11-1.87-2.11-3.24zm14.06-39.27h11.9c7.72 0 11.57-3.82 11.57-11.46 0-7.72-3.86-11.57-11.57-11.57h-11.9v23.03zM205.4 429.11v-70.2c0-1.37.61-2.45 1.84-3.24s2.67-1.19 4.33-1.19h38.5c1.44 0 2.54.61 3.3 1.84.76 1.23 1.14 2.63 1.14 4.22 0 1.73-.4 3.21-1.19 4.43-.79 1.23-1.88 1.84-3.24 1.84h-30.61v21.63h16.44c1.37 0 2.45.56 3.24 1.67.79 1.12 1.19 2.44 1.19 3.95 0 1.37-.38 2.62-1.13 3.73-.76 1.12-1.86 1.67-3.3 1.67h-16.44v21.74h30.61c1.37 0 2.45.62 3.24 1.84.79 1.23 1.19 2.7 1.19 4.43 0 1.59-.38 2.99-1.14 4.22-.76 1.23-1.86 1.84-3.3 1.84h-38.5c-1.66 0-3.1-.4-4.33-1.19-1.22-.78-1.84-1.86-1.84-3.23z"/><g><path class="st4" d="M620.5 429.11v-70.3c0-1.44.68-2.53 2.06-3.25 1.37-.72 3.03-1.08 4.97-1.08s3.6.36 4.97 1.08c1.37.72 2.06 1.8 2.06 3.25v70.3c0 1.37-.7 2.45-2.11 3.24-1.4.79-3.05 1.19-4.92 1.19-1.95 0-3.61-.4-4.97-1.19-1.38-.79-2.06-1.87-2.06-3.24zM642.02 360.31c0-1.66.96-3.04 2.87-4.16 1.91-1.12 3.91-1.67 6-1.67 2.67 0 4.25.94 4.76 2.81l16.55 58.62 16.44-58.62c.5-1.87 2.09-2.81 4.76-2.81 2.02 0 4 .58 5.95 1.73 1.95 1.16 2.92 2.53 2.92 4.11 0 .14-.07.51-.22 1.08l-20.77 68.03c-.43 1.51-1.52 2.69-3.24 3.52-1.73.83-3.68 1.24-5.84 1.24-4.97 0-8-1.58-9.09-4.76l-20.88-68.03c-.14-.58-.21-.94-.21-1.09zM709.73 429.11v-70.2c0-1.37.61-2.45 1.84-3.24s2.67-1.19 4.33-1.19h38.5c1.44 0 2.54.61 3.3 1.84.76 1.23 1.14 2.63 1.14 4.22 0 1.73-.4 3.21-1.19 4.43-.79 1.23-1.88 1.84-3.24 1.84H723.8v21.63h16.44c1.37 0 2.45.56 3.24 1.67.79 1.12 1.19 2.44 1.19 3.95 0 1.37-.38 2.62-1.13 3.73-.76 1.12-1.86 1.67-3.3 1.67H723.8v21.74h30.61c1.37 0 2.45.62 3.24 1.84.79 1.23 1.19 2.7 1.19 4.43 0 1.59-.38 2.99-1.14 4.22-.76 1.23-1.86 1.84-3.3 1.84h-38.5c-1.66 0-3.1-.4-4.33-1.19-1.23-.78-1.84-1.86-1.84-3.23z"/></g></svg>