<svg id="Layer_1" xmlns="http://www.w3.org/2000/svg" viewBox="0 0 867.09 181.6"><style>.st0{fill:#fff}</style><path class="st0" d="M90.8 0C40.65 0 0 40.65 0 90.8s40.65 90.8 90.8 90.8 90.8-40.65 90.8-90.8S140.95 0 90.8 0zm44.29 128.47a8.62 8.62 0 0 1-17.24 0V80.24L97.8 107.01c-.01.01-.02.02-.02.03l-.07.1c-.03.04-.07.08-.1.12-.15.2-.32.39-.49.58-.08.09-.17.17-.25.25-.13.13-.27.26-.41.39-.11.1-.22.19-.34.28-.05.04-.09.08-.14.12-.11.08-.23.16-.34.24-.07.05-.14.1-.22.15-.24.15-.49.29-.74.42-.07.03-.13.06-.2.09-.22.1-.45.2-.67.28-.06.02-.11.04-.17.06-.29.1-.58.19-.87.25-.01 0-.03.01-.04.01-.28.06-.56.11-.84.14-.06.01-.12.02-.18.02-.29.03-.59.05-.88.05h-.01-.01c-.29 0-.59-.02-.88-.05-.06-.01-.12-.01-.18-.02-.28-.03-.56-.08-.84-.14-.01 0-.03-.01-.04-.01a8.65 8.65 0 0 1-.87-.25c-.05-.02-.11-.04-.16-.06-.23-.08-.45-.18-.68-.28-.07-.03-.13-.06-.2-.09-.25-.13-.5-.27-.75-.42-.07-.04-.14-.1-.21-.14-.12-.08-.24-.16-.35-.24l-.15-.12-.33-.27c-.15-.13-.29-.26-.43-.4l-.24-.24c-.18-.19-.35-.39-.51-.6-.03-.04-.06-.06-.09-.1l-.06-.08c-.01-.02-.02-.03-.04-.05L63.75 80.24v48.23a8.62 8.62 0 0 1-17.24 0V54.35c0-.06.01-.12.01-.18 0-.16.01-.31.02-.47.01-.14.02-.27.04-.41l.06-.4c.03-.15.05-.3.09-.45.03-.12.06-.24.09-.35.04-.15.08-.31.13-.46.04-.12.08-.23.13-.34.05-.14.11-.29.17-.43.05-.12.12-.24.18-.36s.12-.25.19-.37c.07-.13.15-.26.23-.38.07-.11.13-.21.2-.31.09-.13.18-.25.28-.37.08-.1.15-.2.23-.29l.3-.33c.09-.1.19-.2.29-.3l.3-.27c.12-.1.24-.21.37-.3.05-.04.09-.08.14-.11.05-.04.1-.07.15-.1.13-.1.27-.19.41-.28.1-.07.21-.13.32-.19.13-.08.27-.15.41-.22.12-.06.24-.12.36-.17.13-.06.27-.11.4-.17.13-.05.26-.1.4-.15l.39-.12c.15-.04.29-.08.44-.11.12-.03.25-.05.37-.07.16-.03.32-.05.48-.07.12-.01.24-.03.36-.03l.5-.03c.06 0 .12-.01.18-.01s.12.01.18.01c.16 0 .32.01.48.02.13.01.27.02.4.04l.41.06c.15.03.3.05.44.09l.36.09c.15.04.3.08.45.13.12.04.23.08.34.13.14.05.29.11.43.17.12.05.24.11.36.18.12.06.25.12.37.19.13.07.26.15.38.23.11.07.21.13.32.21.13.09.25.18.37.28.1.08.2.15.29.24l.33.3c.1.1.2.19.3.29l.27.3c.1.12.21.24.3.37.04.05.08.09.11.14L90.8 87.59l28.77-38.41c.04-.05.08-.09.12-.14l.3-.36c.09-.1.18-.21.28-.3.09-.1.19-.19.29-.28.11-.1.22-.21.34-.31.09-.08.19-.15.29-.23.12-.1.25-.19.38-.28.1-.07.21-.14.31-.2.13-.08.25-.16.39-.23.12-.07.24-.13.37-.19l.36-.18c.14-.06.28-.12.42-.17.11-.04.23-.09.34-.13.15-.05.3-.09.46-.13l.35-.09.45-.09.4-.06c.14-.02.27-.03.41-.04.16-.01.31-.02.47-.02.06 0 .12-.01.18-.01s.13.01.19.01c.16 0 .33.01.49.02.12.01.25.02.37.04.16.02.31.04.47.07.13.02.25.05.38.07.14.03.29.07.43.11l.39.12c.13.04.26.09.39.14.14.05.27.11.4.17.12.05.24.11.36.17.14.07.28.14.41.22.11.06.22.13.32.2.14.09.27.18.4.27.05.04.11.07.16.11.05.04.09.08.14.12.12.1.24.19.36.3.1.09.21.18.31.28.1.09.19.19.28.29.11.11.21.22.31.34.08.09.15.19.23.28l.29.38c.07.1.13.2.2.31l.24.39c.07.12.13.24.19.36s.12.25.18.37c.06.14.11.28.17.42.04.12.09.23.13.35.05.15.09.3.13.45l.09.36c.03.15.06.3.09.44l.06.4c.02.14.03.27.04.41.01.16.02.31.02.47 0 .06.01.12.01.18v74.11zM241.51 104.57c.36.92.72 1.84 1.06 2.77.34-.97.71-1.89 1.09-2.77.38-.88.81-1.77 1.29-2.67l25.12-45.64c.45-.79.91-1.28 1.4-1.45.48-.17 1.17-.26 2.07-.26h7.41v74.23h-8.81V74.24a57.718 57.718 0 0 1 .21-4.87l-25.43 46.41c-.86 1.55-2.07 2.33-3.63 2.33h-1.45c-1.55 0-2.76-.78-3.63-2.33l-26-46.57c.1.9.18 1.78.23 2.64.05.86.08 1.66.08 2.38v54.55h-8.81V54.56h7.41c.9 0 1.59.09 2.07.26.48.17.95.66 1.4 1.45l25.64 45.69c.5.82.92 1.7 1.28 2.61zM363.84 91.7c0 5.56-.88 10.66-2.64 15.31-1.76 4.65-4.25 8.64-7.46 11.99-3.21 3.35-7.07 5.95-11.58 7.8-4.51 1.85-9.49 2.77-14.94 2.77-5.46 0-10.43-.92-14.92-2.77s-8.34-4.45-11.55-7.8c-3.21-3.35-5.7-7.35-7.46-11.99-1.76-4.64-2.64-9.75-2.64-15.31 0-5.56.88-10.66 2.64-15.31 1.76-4.64 4.25-8.65 7.46-12.02 3.21-3.37 7.06-5.98 11.55-7.85 4.49-1.86 9.46-2.8 14.92-2.8 5.46 0 10.44.93 14.94 2.8s8.37 4.48 11.58 7.85c3.21 3.37 5.7 7.37 7.46 12.02 1.76 4.65 2.64 9.75 2.64 15.31zm-10.31 0c0-4.56-.62-8.65-1.86-12.28-1.24-3.63-3-6.69-5.28-9.19-2.28-2.5-5.04-4.43-8.29-5.78-3.25-1.35-6.87-2.02-10.88-2.02-3.97 0-7.58.67-10.83 2.02s-6.02 3.27-8.31 5.78c-2.3 2.5-4.07 5.57-5.31 9.19-1.24 3.63-1.86 7.72-1.86 12.28s.62 8.64 1.86 12.25c1.24 3.61 3.01 6.67 5.31 9.17s5.07 4.42 8.31 5.75c3.25 1.33 6.85 1.99 10.83 1.99 4.01 0 7.63-.66 10.88-1.99 3.25-1.33 6.01-3.25 8.29-5.75 2.28-2.5 4.04-5.56 5.28-9.17 1.24-3.61 1.86-7.69 1.86-12.25zM373.42 128.79V54.56h23.67c4.56 0 8.49.45 11.78 1.35 3.3.9 6.01 2.18 8.13 3.83 2.12 1.66 3.69 3.69 4.71 6.09s1.53 5.1 1.53 8.11c0 1.83-.28 3.59-.85 5.28a15.34 15.34 0 0 1-2.59 4.71c-1.16 1.45-2.61 2.75-4.35 3.89-1.74 1.14-3.79 2.07-6.14 2.8 5.42 1.07 9.51 3.02 12.28 5.85 2.76 2.83 4.14 6.56 4.14 11.19 0 3.14-.58 6.01-1.74 8.6-1.16 2.59-2.85 4.82-5.08 6.68s-4.96 3.31-8.18 4.33c-3.23 1.02-6.92 1.53-11.06 1.53h-26.25zm10.05-40.98h13.26c2.83 0 5.28-.31 7.36-.93s3.79-1.48 5.15-2.59a10.16 10.16 0 0 0 3.03-4.01c.66-1.57.98-3.29.98-5.15 0-4.35-1.31-7.55-3.94-9.58-2.62-2.04-6.7-3.06-12.23-3.06h-13.62v25.32zm0 7.15v25.85h16.06c2.87 0 5.33-.33 7.38-.98 2.05-.66 3.75-1.58 5.08-2.77s2.31-2.61 2.93-4.25c.62-1.64.93-3.44.93-5.41 0-3.83-1.36-6.86-4.07-9.09-2.71-2.23-6.81-3.34-12.3-3.34h-16.01zM448.22 128.79h-10.05V54.56h10.05v74.23zM471.15 54.89c.43.23.92.68 1.48 1.37l43 55.95c-.1-.9-.17-1.77-.21-2.62-.03-.85-.05-1.67-.05-2.46V54.56h8.81v74.23h-5.08c-.79 0-1.46-.14-1.99-.41-.54-.28-1.06-.74-1.58-1.4l-42.94-55.89c.07.86.12 1.71.16 2.54.03.83.05 1.59.05 2.28v52.89h-8.81V54.56h5.18c.88 0 1.54.11 1.98.33zM588.71 54.56V63h-23.98v65.79h-10.05V63h-24.09v-8.44h58.12zM659.01 91.7c0 5.56-.88 10.66-2.64 15.31-1.76 4.65-4.25 8.64-7.46 11.99-3.21 3.35-7.07 5.95-11.58 7.8-4.51 1.85-9.49 2.77-14.94 2.77-5.46 0-10.43-.92-14.92-2.77s-8.34-4.45-11.55-7.8c-3.21-3.35-5.7-7.35-7.46-11.99-1.76-4.64-2.64-9.75-2.64-15.31 0-5.56.88-10.66 2.64-15.31 1.76-4.64 4.25-8.65 7.46-12.02 3.21-3.37 7.06-5.98 11.55-7.85 4.49-1.86 9.46-2.8 14.92-2.8 5.46 0 10.44.93 14.94 2.8s8.37 4.48 11.58 7.85c3.21 3.37 5.7 7.37 7.46 12.02 1.75 4.65 2.64 9.75 2.64 15.31zm-10.31 0c0-4.56-.62-8.65-1.86-12.28-1.24-3.63-3-6.69-5.28-9.19-2.28-2.5-5.04-4.43-8.29-5.78-3.25-1.35-6.87-2.02-10.88-2.02-3.97 0-7.58.67-10.83 2.02s-6.02 3.27-8.31 5.78c-2.3 2.5-4.07 5.57-5.31 9.19-1.24 3.63-1.86 7.72-1.86 12.28s.62 8.64 1.86 12.25c1.24 3.61 3.01 6.67 5.31 9.17s5.07 4.42 8.31 5.75c3.25 1.33 6.85 1.99 10.83 1.99 4.01 0 7.63-.66 10.88-1.99 3.25-1.33 6.01-3.25 8.29-5.75 2.28-2.5 4.04-5.56 5.28-9.17 1.24-3.61 1.86-7.69 1.86-12.25zM697.44 120.81c3.07 0 5.82-.52 8.24-1.55 2.42-1.04 4.46-2.49 6.14-4.35 1.67-1.86 2.95-4.09 3.83-6.68.88-2.59 1.32-5.44 1.32-8.55V54.56h10v45.12c0 4.28-.68 8.25-2.05 11.91-1.36 3.66-3.32 6.83-5.85 9.51-2.54 2.68-5.64 4.77-9.3 6.29-3.66 1.52-7.77 2.28-12.33 2.28s-8.67-.76-12.33-2.28c-3.66-1.52-6.77-3.62-9.32-6.29-2.56-2.68-4.52-5.84-5.88-9.51-1.36-3.66-2.05-7.63-2.05-11.91V54.56h10v45.07c0 3.11.44 5.96 1.32 8.55.88 2.59 2.16 4.82 3.83 6.68 1.67 1.86 3.73 3.32 6.16 4.38 2.44 1.04 5.2 1.57 8.27 1.57zM792.39 113.45c.55 0 1.05.23 1.5.67l3.94 4.3c-3.04 3.52-6.73 6.27-11.06 8.24-4.33 1.97-9.56 2.95-15.67 2.95-5.35 0-10.21-.92-14.56-2.77s-8.06-4.44-11.14-7.77c-3.07-3.33-5.46-7.33-7.15-11.99-1.69-4.66-2.54-9.79-2.54-15.39 0-5.59.91-10.72 2.72-15.38s4.36-8.67 7.64-12.02c3.28-3.35 7.21-5.95 11.79-7.8 4.58-1.85 9.63-2.77 15.15-2.77 5.46 0 10.16.85 14.12 2.54 3.95 1.69 7.47 3.99 10.54 6.89l-3.26 4.61c-.24.35-.52.63-.83.85-.31.23-.76.34-1.35.34-.45 0-.92-.16-1.42-.49-.5-.33-1.1-.73-1.79-1.22-.69-.48-1.5-1-2.43-1.55-.93-.55-2.04-1.07-3.32-1.55-1.28-.48-2.76-.89-4.46-1.22-1.69-.33-3.64-.49-5.85-.49-3.97 0-7.61.68-10.9 2.05-3.3 1.36-6.14 3.31-8.52 5.83s-4.24 5.59-5.57 9.22c-1.33 3.63-1.99 7.68-1.99 12.17 0 4.63.66 8.75 1.99 12.38 1.33 3.63 3.14 6.69 5.44 9.19 2.3 2.5 5.02 4.41 8.16 5.72 3.14 1.31 6.53 1.97 10.15 1.97 2.21 0 4.2-.13 5.96-.39 1.76-.26 3.39-.66 4.9-1.22 1.5-.55 2.9-1.25 4.2-2.1 1.29-.85 2.6-1.86 3.91-3.03.58-.51 1.15-.77 1.7-.77zM867.09 128.79h-10.1V95.01H817v33.77h-10.1V54.56H817v33.1h39.99v-33.1h10.1v74.23z"/></svg>