<svg id="Layer_1" xmlns="http://www.w3.org/2000/svg" width="500" height="212"><style>.st0{fill:#df2626}.st1{fill:red}</style><path class="st0" d="M172.856 205.381c-4.863-.051-9.436-3.01-11.311-7.822L113.218 56.934c-2.464-6.323.654-13.44 6.979-15.913 6.317-2.464 13.448.654 15.913 6.979l48.327 140.633c2.464 6.317-.654 13.441-6.979 15.913-1.512.58-3.075.856-4.602.835z"/><path class="st1" d="M52.337 143.519a12.364 12.364 0 0 1-4.042-.733c-6.383-2.313-9.683-9.355-7.372-15.73l28.692-79.244c2.312-6.382 9.363-9.683 15.731-7.37 6.382 2.312 9.683 9.354 7.371 15.737l-28.692 79.243c-1.823 5.036-6.606 8.154-11.688 8.097z"/><path class="st0" d="M365.996 199.747c-3.613-.044-7.184-1.665-9.574-4.747L254.099 52.39c-4.165-5.357-3.19-13.078 2.159-17.234 5.357-4.166 13.07-3.199 17.242 2.158l102.331 142.611c4.165 5.357 3.19 13.077-2.166 17.242a12.276 12.276 0 0 1-7.669 2.58z"/><path class="st1" d="M257.879 157.207c-3.723-.044-7.386-1.768-9.763-4.994l-35.148-67.671c-4.026-5.459-2.864-13.15 2.595-17.178 5.459-4.026 13.158-2.863 17.179 2.596l35.146 67.67c4.027 5.467 2.871 13.158-2.596 17.178a12.209 12.209 0 0 1-7.413 2.399z"/><path class="st0" d="M257.726 157.25a12.215 12.215 0 0 1-7.538-2.696c-5.291-4.238-6.148-11.973-1.911-17.271l89.688-126.059c4.245-5.292 11.973-6.15 17.272-1.912 5.292 4.238 6.148 11.973 1.911 17.272L267.46 152.642a12.289 12.289 0 0 1-9.734 4.608z"/><path class="st1" d="M172.558 205.177a12.25 12.25 0 0 1-5.045-1.155c-6.15-2.863-8.811-10.178-5.939-16.327l50.15-115.641c2.864-6.143 10.17-8.811 16.327-5.939 6.15 2.865 8.812 10.178 5.939 16.328l-50.15 115.64c-2.108 4.514-6.608 7.146-11.282 7.094z"/><path class="st0" d="M257.879 157.207c-3.723-.044-7.386-1.768-9.763-4.994l-35.148-67.671c-4.026-5.459-2.864-13.15 2.595-17.178 5.459-4.026 13.158-2.863 17.179 2.596l35.146 67.67c4.027 5.467 2.871 13.158-2.596 17.178a12.209 12.209 0 0 1-7.413 2.399z"/><path class="st1" d="M172.558 205.177a12.25 12.25 0 0 1-5.045-1.155c-6.15-2.863-8.811-10.178-5.939-16.327l50.15-115.641c2.864-6.143 10.17-8.811 16.327-5.939 6.15 2.865 8.812 10.178 5.939 16.328l-50.15 115.64c-2.108 4.514-6.608 7.146-11.282 7.094z"/><path class="st0" d="M102.656 112.937c-4.66-.051-9.086-2.763-11.1-7.299L69.944 56.977c-2.755-6.2.036-13.463 6.244-16.218 6.201-2.762 13.463.036 16.218 6.244l21.612 48.66c2.755 6.201-.037 13.457-6.245 16.219a12.461 12.461 0 0 1-5.117 1.055z"/><path class="st1" d="M102.634 112.937a12.19 12.19 0 0 1-4.936-1.105c-6.179-2.805-8.912-10.09-6.106-16.269l21.881-48.181c2.806-6.18 10.09-8.913 16.269-6.105 6.179 2.805 8.912 10.09 6.106 16.269l-21.88 48.181c-2.08 4.571-6.609 7.26-11.334 7.21z"/><path d="M5 186.975v-21.938c0-6.188 1.679-10.729 5.03-13.639 3.351-2.908 7.728-4.36 13.128-4.36 5.503 0 9.996 1.365 13.485 4.093 3.489 2.726 5.227 6.339 5.227 10.853 0 1.941-.393 3.265-1.178 3.97-.785.706-2.101 1.062-3.933 1.062-3.358 0-5.06-1.075-5.11-3.22a21.592 21.592 0 0 0-.196-1.774c-.08-.494-.291-1.147-.625-1.962-.342-.813-.778-1.49-1.301-2.043s-1.309-1.024-2.355-1.418c-1.046-.393-2.283-.589-3.693-.589-5.503 0-8.258 3.018-8.258 9.043v21.939c0 6.025 2.806 9.043 8.411 9.043 1.679 0 3.082-.263 4.209-.785 1.126-.523 1.941-1.272 2.435-2.239.501-.967.836-1.831 1.025-2.595.182-.756.298-1.693.356-2.791.16-2.146 1.832-3.222 5.03-3.222 1.832 0 3.155.356 3.969 1.063.814.705 1.221 2.028 1.221 3.969 0 4.718-1.745 8.49-5.227 11.326-3.49 2.827-8.011 4.245-13.565 4.245-5.401 0-9.763-1.454-13.092-4.362C6.664 197.704 5 193.161 5 186.975zm43.79 14.313v-51.104c0-.836.313-1.57.945-2.203.625-.632 1.417-.943 2.355-.943h15.571c12.423 0 18.631 5.479 18.631 16.436 0 4.297-.93 7.757-2.792 10.374-1.861 2.624-4.361 4.404-7.509 5.351l10.308 19.104c.262.313.393.733.393 1.257 0 1.31-.683 2.53-2.042 3.657-1.367 1.126-2.806 1.687-4.326 1.687-1.519 0-2.697-.813-3.54-2.436l-11.166-21.699H59.01v20.521c0 .996-.501 1.78-1.498 2.354-.996.574-2.203.865-3.613.865-1.367 0-2.559-.291-3.577-.865s-1.532-1.36-1.532-2.356zm10.221-28.547h8.65c5.612 0 8.411-2.776 8.411-8.331 0-5.611-2.806-8.41-8.411-8.41h-8.65v16.741zm34.595 28.547v-51.031c0-.996.443-1.78 1.338-2.354.894-.574 1.941-.864 3.147-.864h27.987c1.047 0 1.847.442 2.399 1.337.553.895.829 1.912.829 3.067 0 1.258-.291 2.333-.865 3.221-.574.895-1.367 1.338-2.355 1.338h-22.251v15.724h11.951c.996 0 1.781.407 2.355 1.214.574.814.865 1.773.865 2.871 0 .996-.276 1.905-.822 2.712-.552.814-1.352 1.214-2.399 1.214h-11.951v15.805h22.251c.996 0 1.781.45 2.355 1.338.574.894.865 1.962.865 3.22 0 1.156-.276 2.174-.829 3.067-.552.895-1.352 1.338-2.399 1.338H98.09c-1.207 0-2.253-.291-3.147-.865-.887-.571-1.337-1.356-1.337-2.352zM395.355 201.288v-51.104c0-1.047.494-1.839 1.498-2.361.995-.523 2.202-.785 3.612-.785s2.617.262 3.613.785c.996.522 1.497 1.309 1.497 2.361v51.104c0 .996-.509 1.78-1.533 2.354-1.019.574-2.218.865-3.577.865-1.417 0-2.624-.291-3.612-.865-1.002-.573-1.498-1.358-1.498-2.354zM411 151.274c0-1.206.698-2.21 2.087-3.022 1.388-.814 2.842-1.214 4.361-1.214 1.939 0 3.09.683 3.46 2.042l12.031 42.612 11.949-42.612c.364-1.359 1.521-2.042 3.461-2.042 1.469 0 2.907.421 4.325 1.257 1.417.844 2.122 1.84 2.122 2.988 0 .102-.051.369-.159.784l-15.099 49.453c-.313 1.099-1.105 1.956-2.355 2.56-1.258.604-2.675.9-4.244.9-3.613 0-5.815-1.147-6.608-3.46l-15.178-49.453c-.102-.421-.153-.683-.153-.793zm49.221 50.014v-51.031c0-.996.443-1.78 1.338-2.354.896-.574 1.941-.864 3.147-.864h27.987c1.047 0 1.847.442 2.397 1.337.553.895.829 1.912.829 3.067 0 1.258-.291 2.333-.865 3.221-.573.895-1.365 1.338-2.354 1.338h-22.251v15.724H482.4c.994 0 1.779.407 2.354 1.214.574.814.865 1.773.865 2.871 0 .996-.276 1.905-.821 2.712-.553.814-1.353 1.214-2.397 1.214H470.45v15.805h22.25c.996 0 1.781.45 2.354 1.338.574.894.865 1.962.865 3.22 0 1.156-.276 2.174-.829 3.067-.552.895-1.352 1.338-2.397 1.338h-27.987c-1.206 0-2.253-.291-3.147-.865-.895-.571-1.338-1.356-1.338-2.352z"/></svg>