<svg xmlns="http://www.w3.org/2000/svg" width="71.333" height="101.171"><path fill="red" d="M35.667 3.17c-19.046 0-34.486 15.102-34.486 33.729-.012 8.06 1.212 13.645 5.894 20.97 4.68 7.323 28.592 41.302 28.592 41.302S59.58 65.192 64.26 57.869c4.682-7.325 5.906-12.91 5.894-20.97 0-18.628-15.44-33.729-34.487-33.729z"/><path fill="#FFF" d="M21.155 25.685l-8.796 25.858c-.736 2.163.394 4.711 2.422 5.646 2.182 1.006 5.037-.376 5.819-2.685l5.778-16.984c-1.733-3.892-3.936-7.768-5.223-11.835zM57.207 51.182L47.099 25.425c-.076.28-.165.552-.278.822l-4.606 10.732 6.89 17.557c.869 2.215 3.466 3.407 5.684 2.482 2.235-.928 3.317-3.539 2.418-5.836zM45.808 22.256c-.473-1.187-1.41-2.174-2.698-2.557-1.973-.667-4.477.451-5.248 2.398-.009.023-.027.047-.038.075l-3.17 7.24 4.905 10.961 6.26-14.583c.467-1.128.432-2.419-.011-3.534zM38.201 39.792c-2.305-5.179-4.432-10.484-6.92-15.574-1.096-2.241-2.416-4.992-5.386-4.677-2.89.307-4.693 3.619-3.507 6.305 1.076 2.414 2.146 4.831 3.224 7.244 1.434 3.208 2.823 6.439 4.264 9.641.824 1.831 2.671 3.451 4.755 3.369 3.032-.12 4.722-3.72 3.57-6.308z"/><g><path fill-rule="evenodd" clip-rule="evenodd" fill="red" d="M115.101 32.866l-.146.004c-2.76.106-4.869 2.263-4.821 4.954a4.775 4.775 0 0 0 1.514 3.444c.931.87 2.169 1.345 3.528 1.345l.106-.001c1.366-.024 2.624-.548 3.544-1.474.918-.924 1.407-2.165 1.379-3.497-.057-2.729-2.296-4.823-5.104-4.775zm2.274 6.921c-.546.55-1.303.861-2.165.876a2.927 2.927 0 0 1-2.162-.797c-.564-.527-.884-1.265-.898-2.075-.029-1.661 1.237-2.939 2.947-2.975l.125-.002c1.667.02 2.936 1.235 2.969 2.866.017.811-.273 1.559-.816 2.107zm9.805-2.386c-.125-6.41-5.643-11.531-12.238-11.407-6.623.121-11.91 5.435-11.787 11.844.047 2.521.416 4.491 2.174 7.102 1.531 2.277 9.082 12.478 9.403 12.91l.853 1.151.807-1.181c.303-.445 7.451-10.913 8.895-13.244 1.653-2.673 1.946-4.655 1.893-7.175zm-3.623 6.172c-1.138 1.838-6.078 9.108-8.04 11.988-2.073-2.807-7.293-9.892-8.501-11.687-1.334-1.982-1.801-3.514-1.847-6.073-.103-5.335 4.297-9.758 9.81-9.858l.191-.001c5.427 0 9.893 4.222 9.996 9.496.053 2.559-.352 4.106-1.609 6.135z"/></g><g><path fill="red" d="M185.764 43.209c-2.975 0-5.395 2.347-5.395 5.229-.001 1.087.15 1.995.904 3.165.6.93 3.538 5.064 3.662 5.24l.828 1.164.826-1.164c.125-.176 3.064-4.311 3.664-5.24.754-1.17.906-2.078.904-3.164.002-2.883-2.418-5.23-5.393-5.23zm2.787 7.353c-.384.594-1.845 2.668-2.787 4.001-.943-1.333-2.402-3.407-2.787-4.001-.457-.71-.598-1.205-.596-2.123 0-1.805 1.518-3.272 3.383-3.272s3.383 1.468 3.383 3.273c.002.916-.139 1.412-.596 2.122zm-24-11.77l.827-1.164c.124-.176 3.063-4.312 3.663-5.241.755-1.169.906-2.077.904-3.163 0-2.884-2.42-5.229-5.395-5.229s-5.395 2.346-5.395 5.229c0 1.087.15 1.995.904 3.163.602.931 3.539 5.066 3.663 5.242l.829 1.163zm-3.383-9.568c0-1.805 1.518-3.272 3.383-3.272 1.866 0 3.384 1.468 3.384 3.273.001.917-.139 1.412-.597 2.122-.384.595-1.844 2.667-2.787 4-.943-1.333-2.402-3.405-2.787-4.002-.457-.708-.596-1.203-.596-2.121zm2.926 16.386c0-2.207 1.846-4.002 4.115-4.002h14.629c3.379 0 6.127-2.675 6.127-5.961s-2.748-5.96-6.127-5.96h-7.813l1.209-1.176-1.422-1.385-3.638 3.539 3.638 3.538 1.422-1.384-1.209-1.176h7.813c2.27 0 4.115 1.796 4.115 4.003 0 2.208-1.846 4.004-4.115 4.004h-14.629c-3.379 0-6.127 2.673-6.127 5.959 0 3.287 2.748 5.961 6.127 5.961h10.24v-1.957h-10.24c-2.269.001-4.115-1.795-4.115-4.003z"/></g></svg>