<?xml version="1.0" encoding="utf-8"?>
<!-- Generator: Adobe Illustrator 16.0.0, SVG Export Plug-In . SVG Version: 6.00 Build 0)  -->
<!DOCTYPE svg PUBLIC "-//W3C//DTD SVG 1.1//EN" "http://www.w3.org/Graphics/SVG/1.1/DTD/svg11.dtd">
<svg version="1.1" id="Layer_1" xmlns="http://www.w3.org/2000/svg" xmlns:xlink="http://www.w3.org/1999/xlink" x="0px" y="0px"
	 width="37.75px" height="39.75px" viewBox="0 0 37.75 39.75" style="enable-background:new 0 0 37.75 39.75;" xml:space="preserve"
	>
<style type="text/css">
<![CDATA[
	.st0{fill:#FF0000;}
	.st1{fill:#FFFFFF;}
]]>
</style>
<path class="st0" d="M-120.249-18.084c-19.046,0-34.486,15.102-34.486,33.729c-0.012,8.06,1.212,13.645,5.894,20.97
	c4.68,7.322,28.592,41.302,28.592,41.302s23.913-33.979,28.592-41.302c4.682-7.325,5.906-12.91,5.894-20.97
	C-85.763-2.982-101.203-18.084-120.249-18.084L-120.249-18.084z"/>
<path class="st1" d="M-134.762,4.431l-8.796,25.858c-0.736,2.163,0.394,4.711,2.422,5.646c2.182,1.006,5.037-0.377,5.819-2.686
	l5.778-16.984C-131.272,12.374-133.474,8.499-134.762,4.431L-134.762,4.431z M-98.71,29.928l-10.108-25.757
	c-0.076,0.28-0.165,0.552-0.278,0.822l-4.606,10.732l6.89,17.557c0.869,2.215,3.466,3.407,5.684,2.481
	C-98.892,34.836-97.81,32.225-98.71,29.928z M-110.109,1.002c-0.473-1.187-1.41-2.174-2.698-2.557
	c-1.973-0.667-4.477,0.451-5.248,2.398c-0.009,0.023-0.027,0.047-0.038,0.075l-3.17,7.24l4.905,10.961l6.26-14.583
	C-109.63,3.408-109.665,2.117-110.109,1.002z M-117.716,18.538c-2.305-5.179-4.432-10.484-6.92-15.574
	c-1.096-2.241-2.416-4.992-5.386-4.677c-2.89,0.307-4.693,3.619-3.507,6.305c1.076,2.414,2.146,4.831,3.224,7.244
	c1.434,3.208,2.823,6.439,4.264,9.641c0.824,1.832,2.671,3.451,4.755,3.369C-118.253,24.727-116.564,21.126-117.716,18.538z"/>
<g>
	<path class="st0" d="M-40.815,11.612l-0.146,0.004c-2.76,0.106-4.869,2.263-4.821,4.954c0.012,1.307,0.56,2.552,1.514,3.444
		c0.931,0.87,2.169,1.345,3.528,1.345l0.106-0.002c1.366-0.023,2.624-0.547,3.544-1.474c0.918-0.924,1.407-2.165,1.379-3.497
		C-35.769,13.658-38.008,11.564-40.815,11.612z M-38.542,18.533c-0.546,0.55-1.303,0.861-2.165,0.876
		c-0.799,0.041-1.581-0.247-2.162-0.797c-0.564-0.527-0.884-1.265-0.898-2.075c-0.029-1.661,1.237-2.939,2.947-2.975l0.125-0.002
		c1.667,0.02,2.936,1.235,2.969,2.866C-37.708,17.237-37.998,17.985-38.542,18.533z M-28.736,16.147
		c-0.125-6.41-5.643-11.531-12.238-11.407c-6.623,0.121-11.91,5.435-11.787,11.844c0.047,2.521,0.416,4.491,2.174,7.102
		c1.531,2.277,9.082,12.479,9.403,12.91l0.853,1.151l0.807-1.181c0.303-0.445,7.451-10.914,8.895-13.244
		C-28.977,20.648-28.684,18.667-28.736,16.147z M-32.359,22.318c-1.138,1.839-6.078,9.108-8.04,11.988
		c-2.073-2.807-7.293-9.892-8.501-11.687c-1.334-1.981-1.801-3.514-1.847-6.073c-0.103-5.335,4.297-9.758,9.81-9.858l0.191-0.001
		c5.427,0,9.893,4.222,9.996,9.496C-30.697,18.743-31.103,20.29-32.359,22.318z"/>
</g>
<g>
	<path class="st0" d="M29.848,21.955c-2.975,0-5.395,2.347-5.395,5.229c-0.001,1.088,0.15,1.996,0.904,3.166
		c0.6,0.93,3.537,5.063,3.662,5.239l0.828,1.164l0.825-1.164c0.125-0.176,3.063-4.312,3.664-5.239
		c0.754-1.17,0.906-2.078,0.904-3.164C35.242,24.302,32.822,21.955,29.848,21.955z M32.635,29.309c-0.384,0.594-1.845,2.668-2.787,4
		c-0.943-1.332-2.402-3.406-2.787-4c-0.457-0.711-0.598-1.205-0.596-2.123c0-1.806,1.518-3.272,3.383-3.272s3.383,1.468,3.383,3.272
		C33.232,28.104,33.092,28.598,32.635,29.309z M8.635,17.538l0.827-1.164c0.124-0.176,3.063-4.312,3.663-5.241
		c0.755-1.169,0.906-2.077,0.904-3.163c0-2.884-2.42-5.229-5.395-5.229c-2.975,0-5.394,2.345-5.394,5.228
		c0,1.087,0.15,1.995,0.904,3.163c0.602,0.931,3.539,5.066,3.663,5.242L8.635,17.538z M5.252,7.97c0-1.805,1.518-3.271,3.383-3.271
		c1.866,0,3.384,1.468,3.384,3.273c0.001,0.917-0.139,1.412-0.597,2.122c-0.384,0.595-1.844,2.667-2.787,4
		c-0.943-1.333-2.402-3.405-2.787-4.002C5.391,9.383,5.252,8.888,5.252,7.97z M8.178,24.355c0-2.207,1.846-4.001,4.115-4.001h14.629
		c3.379,0,6.127-2.675,6.127-5.961s-2.748-5.96-6.127-5.96h-7.813l1.209-1.176l-1.422-1.385l-3.638,3.539l3.638,3.538l1.422-1.384
		l-1.209-1.176h7.813c2.27,0,4.115,1.796,4.115,4.003c0,2.208-1.846,4.004-4.115,4.004H12.293c-3.379,0-6.127,2.672-6.127,5.959
		s2.748,5.961,6.127,5.961h10.24v-1.957h-10.24C10.023,28.359,8.178,26.564,8.178,24.355z"/>
</g>
</svg>
