<svg xmlns="http://www.w3.org/2000/svg" width="1010" height="291">
    <path fill="#E6C585" fill-rule="evenodd" d="M10 10.564h1000v280.154H10V10.564z"/>
    <path fill="#FFF" fill-rule="evenodd" d="M0 .558h1000v280.154H0V.558z"/>
    <path fill="#FF4D4E" fill-rule="evenodd" d="M148.971 105.792l1.789-5.854 27.269 8.441-1.789 5.854-27.269-8.441zM873.582 145.156l-5.427-2.826 13.263-25.289 5.427 2.826-13.263 25.289zM917.026 255.975l.512-6.1 28.436 2.483-.512 6.1-28.436-2.483zM100.582 196.184l-5.427-2.826 13.263-25.289 5.427 2.826-13.263 25.289z"/>
    <path fill="#FFD666" fill-rule="evenodd" d="M817.72 38.685l4.095-4.387 20.465 19.121-4.095 4.387-20.465-19.121zM49.72 73.705l4.095-4.388L74.28 88.438l-4.095 4.388L49.72 73.705zM941.25 158.628l-1.55-5.799 27.05-7.237 1.55 5.8-27.05 7.236zM25.186 263.158l-3.183-5.109 23.811-14.876 3.183 5.109-23.811 14.876z"/>
    <path fill="#669EFF" fill-rule="evenodd" d="M819.72 211.781l4.095-4.388 20.465 19.12-4.095 4.388-20.465-19.12zM925.357 56.402l-.582-5.975 27.868-2.718.582 5.975-27.868 2.718zM18.362 177.484l-.589-5.974 27.865-2.75.589 5.974-27.865 2.75zM180.316 253.427l-3.325 4.997-23.307-15.525 3.325-4.997 23.307 15.525z"/>
</svg>
