<svg id="Layer_1" xmlns="http://www.w3.org/2000/svg" viewBox="0 0 258 215.3"><style>.st0{fill:#df2626}.st1{fill:red}</style><path class="st0" d="M111.6 162.1c-4.1 0-7.9-2.4-9.6-6.5L75.3 89.3C73.2 84 75.7 78 81 75.9c5.3-2.1 11.3.4 13.4 5.7l26.8 66.3c2.1 5.3-.4 11.3-5.7 13.4-1.3.6-2.6.8-3.9.8z"/><path class="st1" d="M25.1 162.5c-1.1 0-2.3-.2-3.4-.6-5.4-1.9-8.2-7.8-6.3-13.1l23.3-66.7c1.9-5.4 7.8-8.2 13.1-6.3 5.4 1.9 8.2 7.8 6.3 13.1l-23.3 66.7c-1.5 4.3-5.5 6.9-9.7 6.9z"/><path class="st0" d="M223.3 137.9c-3 0-6-1.3-8.1-3.9l-49.1-61.8c-3.5-4.5-2.8-10.9 1.7-14.5 4.5-3.5 10.9-2.8 14.5 1.7l49.1 61.8c3.5 4.5 2.8 10.9-1.7 14.5-1.9 1.5-4.2 2.2-6.4 2.2zm-50.1-1.5c-3.1 0-6.2-1.4-8.2-4.1l-30.6-40.6c-3.4-4.5-2.5-11 2-14.4 4.5-3.4 11-2.5 14.4 2l30.6 40.6c3.4 4.5 2.5 11-2 14.4-1.9 1.4-4.1 2.1-6.2 2.1z"/><path class="st1" d="M174.2 136.4c-2.2 0-4.5-.7-6.3-2.2-4.5-3.5-5.3-10-1.8-14.5l56.6-104.5c3.5-4.5 10-5.3 14.5-1.8s5.3 10 1.8 14.5l-56.6 104.5c-2.1 2.7-5.2 4-8.2 4zm-61.9 26.1c-1.4 0-2.9-.3-4.2-.9-5.2-2.3-7.5-8.5-5.1-13.6l30.2-66.7c2.3-5.2 8.4-7.5 13.6-5.1 5.2 2.3 7.5 8.5 5.1 13.6l-30.2 66.7c-1.7 3.8-5.5 6-9.4 6z"/><path class="st0" d="M67 136.4c-3.9 0-7.6-2.2-9.4-6L39 89.8c-2.4-5.2-.1-11.3 5.1-13.7 5.2-2.4 11.3-.1 13.7 5.1l18.6 40.6c2.4 5.2.1 11.3-5.1 13.7-1.4.6-2.9.9-4.3.9z"/><path class="st1" d="M67 136.4c-1.4 0-2.8-.3-4.2-.9-5.2-2.3-7.6-8.4-5.3-13.6l17.9-40.6c2.3-5.2 8.4-7.6 13.6-5.3 5.2 2.3 7.6 8.4 5.3 13.6l-17.9 40.6c-1.7 3.9-5.5 6.2-9.4 6.2z"/><circle cx="241.1" cy="152.2" r="9.9" class="st0"/></svg>