<?xml version="1.0" encoding="utf-8"?>
<!-- Generator: Adobe Illustrator 16.0.0, SVG Export Plug-In . SVG Version: 6.00 Build 0)  -->
<!DOCTYPE svg PUBLIC "-//W3C//DTD SVG 1.1//EN" "http://www.w3.org/Graphics/SVG/1.1/DTD/svg11.dtd">
<svg version="1.1" id="Layer_1" xmlns="http://www.w3.org/2000/svg" xmlns:xlink="http://www.w3.org/1999/xlink" x="0px" y="0px"
	 width="30.5px" height="37.01px" viewBox="0 0 30.5 37.01" style="enable-background:new 0 0 30.5 37.01;" xml:space="preserve">
<style type="text/css">
<![CDATA[
	.st0{fill:#FF0000;}
	.st1{fill:#FFFFFF;}
]]>
</style>
<path class="st0" d="M-63.749-20.824c-19.046,0-34.486,15.102-34.486,33.729c-0.012,8.06,1.212,13.645,5.894,20.97
	c4.68,7.323,28.592,41.302,28.592,41.302s23.913-33.979,28.592-41.302c4.682-7.325,5.906-12.91,5.894-20.97
	C-29.263-5.723-44.703-20.824-63.749-20.824z"/>
<path class="st1" d="M-78.262,1.69l-8.796,25.858c-0.736,2.163,0.394,4.711,2.422,5.646c2.182,1.006,5.037-0.377,5.819-2.686
	l5.778-16.984C-74.772,9.634-76.974,5.758-78.262,1.69z M-42.21,27.188L-52.318,1.431c-0.076,0.28-0.165,0.552-0.278,0.822
	l-4.606,10.732l6.89,17.557c0.869,2.215,3.466,3.407,5.684,2.482C-42.392,32.097-41.31,29.483-42.21,27.188z M-53.609-1.738
	c-0.473-1.187-1.41-2.174-2.698-2.557c-1.973-0.667-4.477,0.451-5.248,2.398c-0.009,0.023-0.027,0.047-0.038,0.075l-3.17,7.24
	l4.905,10.961l6.26-14.583C-53.13,0.667-53.165-0.623-53.609-1.738z M-61.216,15.798c-2.305-5.179-4.432-10.484-6.92-15.574
	c-1.096-2.241-2.416-4.992-5.386-4.677c-2.89,0.307-4.693,3.619-3.507,6.305c1.076,2.414,2.146,4.831,3.224,7.244
	c1.434,3.208,2.823,6.439,4.264,9.641c0.824,1.831,2.671,3.452,4.755,3.37C-61.753,21.985-60.064,18.386-61.216,15.798
	L-61.216,15.798z"/>
<g>
	<path class="st0" d="M15.685,8.872l-0.146,0.004c-2.76,0.106-4.869,2.263-4.821,4.954c0.012,1.307,0.56,2.551,1.514,3.444
		c0.931,0.87,2.169,1.345,3.528,1.345l0.106-0.001c1.366-0.024,2.624-0.548,3.544-1.474c0.918-0.924,1.406-2.165,1.379-3.497
		C20.73,10.918,18.492,8.824,15.685,8.872z M17.958,15.793c-0.546,0.55-1.304,0.861-2.165,0.876
		c-0.799,0.041-1.581-0.247-2.162-0.797c-0.564-0.527-0.884-1.265-0.898-2.075c-0.029-1.661,1.237-2.939,2.947-2.975l0.125-0.002
		c1.668,0.02,2.937,1.235,2.969,2.866C18.792,14.497,18.502,15.245,17.958,15.793z M27.764,13.407
		C27.639,6.997,22.121,1.876,15.525,2C8.902,2.121,3.615,7.435,3.738,13.844c0.047,2.521,0.416,4.491,2.174,7.103
		c1.531,2.277,9.082,12.478,9.403,12.91l0.853,1.15l0.807-1.181c0.303-0.445,7.451-10.913,8.896-13.244
		C27.523,17.909,27.816,15.927,27.764,13.407z M24.141,19.579c-1.138,1.838-6.078,9.107-8.039,11.988
		C14.028,28.76,8.808,21.675,7.6,19.88c-1.334-1.982-1.801-3.514-1.847-6.073C5.65,8.473,10.05,4.05,15.563,3.949l0.191-0.001
		c5.428,0,9.893,4.222,9.996,9.496C25.803,16.003,25.396,17.55,24.141,19.579z"/>
</g>
<g>
	<path class="st0" d="M86.348,19.215c-2.975,0-5.395,2.347-5.395,5.229c-0.001,1.087,0.15,1.994,0.904,3.164
		c0.6,0.931,3.537,5.064,3.662,5.24l0.828,1.164l0.825-1.164c0.125-0.176,3.063-4.311,3.664-5.24
		c0.754-1.17,0.906-2.077,0.904-3.164C91.742,21.562,89.322,19.215,86.348,19.215z M89.135,26.567c-0.384,0.594-1.845,2.668-2.787,4
		c-0.943-1.332-2.402-3.406-2.787-4c-0.457-0.711-0.598-1.205-0.596-2.123c0-1.805,1.518-3.272,3.383-3.272s3.383,1.468,3.383,3.272
		C89.732,25.362,89.592,25.856,89.135,26.567z M65.135,14.798l0.827-1.164c0.124-0.176,3.063-4.312,3.663-5.241
		c0.755-1.169,0.906-2.077,0.904-3.163c0-2.884-2.42-5.229-5.396-5.229c-2.975,0-5.394,2.345-5.394,5.228
		c0,1.087,0.15,1.995,0.904,3.163c0.602,0.931,3.539,5.066,3.662,5.242L65.135,14.798z M61.752,5.229
		c0-1.805,1.518-3.272,3.383-3.272c1.866,0,3.385,1.468,3.385,3.273c0,0.917-0.14,1.412-0.598,2.122
		c-0.384,0.595-1.844,2.667-2.787,4c-0.943-1.333-2.402-3.405-2.787-4.002C61.891,6.643,61.752,6.147,61.752,5.229z M64.678,21.616
		c0-2.207,1.846-4.002,4.115-4.002h14.629c3.379,0,6.127-2.675,6.127-5.961c0-3.286-2.748-5.96-6.127-5.96h-7.813l1.209-1.176
		l-1.422-1.385l-3.639,3.539l3.639,3.538l1.422-1.384L75.609,7.65h7.813c2.27,0,4.115,1.796,4.115,4.003
		c0,2.208-1.846,4.004-4.115,4.004H68.793c-3.379,0-6.127,2.673-6.127,5.959c0,3.287,2.748,5.961,6.127,5.961h10.24V25.62h-10.24
		C66.523,25.62,64.678,23.824,64.678,21.616z"/>
</g>
</svg>
