<svg xmlns="http://www.w3.org/2000/svg" width="41" height="27"><path d="M38 8.3V3H3v5.3c2.8 0 5 2.3 5 5.2s-2.2 5.2-5 5.2V24h35v-5.3c-2.8 0-5-2.3-5-5.2s2.2-5.2 5-5.2z" fill="#fff"/><path d="M38 11.3h3V0H0v11.3h3c1.1 0 2 1 2 2.2 0 1.2-.9 2.2-2 2.2H0V27h41V15.7h-3c-1.1 0-2-1-2-2.2 0-1.2.9-2.2 2-2.2zm0 7.4V24H3v-5.3c2.8 0 5-2.3 5-5.2S5.9 8.3 3 8.3V3h35v5.3c-2.8 0-5 2.3-5 5.2s2.2 5.2 5 5.2z" fill="red"/><path d="M38 8.3V3H3v5.3c2.8 0 5 2.3 5 5.2s-2.2 5.2-5 5.2V24h35v-5.3c-2.8 0-5-2.3-5-5.2s2.2-5.2 5-5.2z" fill="#fff"/></svg>